<svg width="298" height="60" viewBox="0 0 298 60" fill="none" xmlns="http://www.w3.org/2000/svg" xmlns:xlink="http://www.w3.org/1999/xlink">
<style>._66 {
	animation: 1.5s linear 0.5s 1 normal forwards running _66;
		fill: rgba(0,0,0,0);
}
@keyframes _66 {
	0% {
		fill: rgba(0,0,0,0);
	}
	33.33% {
		fill: rgba(0,0,0,0);
	}
	100% {
		fill: rgba(0,0,0,1);
	}
}._235 {
	animation: 1.5s linear 0s 1 normal forwards running _235;
		fill: rgba(0,0,0,0);
}
@keyframes _235 {
	0% {
		fill: rgba(0,0,0,0);
	}
	66.67% {
		fill: rgba(0,0,0,1);
	}
	100% {
		fill: rgba(0,0,0,1);
	}
}
</style>
<g clip-path="url(#clip_0_152)" width="298" height="60" data-name="Frame">
	<path d="M268 0H30C13.4315 0 0 13.4315 0 30C0 46.5685 13.4315 60 30 60H268C284.569 60 298 46.5685 298 30C298 13.4315 284.569 0 268 0Z" fill="white" data-name="Vector"/>
	<path d="M0.589996 10.59L5.17 6L0.589996 1.41L2 0L8 6L2 12L0.589996 10.59Z" fill="black" data-name=">" class="_66" transform="translate(196.59 24)"/>
	<path d="M5.7278 2.616V5.856C5.7278 10.176 3.9038 14.448 0.0398026 16.128L1.9358 18.768C6.352 16.728 8.32 11.568 8.32 5.856V2.616H5.7278ZM6.352 2.616V5.856C6.352 11.328 8.32 16.272 12.616 18.24L14.488 15.672C10.696 14.04 8.944 9.96 8.944 5.856V2.616H6.352ZM15.544 0.888V23.184H18.76V0.888H15.544ZM27.326 3.192V4.584C27.326 7.368 25.766 10.248 22.046 11.448L23.702 13.92C27.95 12.552 29.942 8.784 29.942 4.584V3.192H27.326ZM27.974 3.192V4.584C27.974 8.568 29.894 12.192 34.046 13.536L35.678 11.064C32.078 9.912 30.566 7.2 30.566 4.584V3.192H27.974ZM22.91 2.208V4.752H34.91V2.208H22.91ZM36.686 0.912001V14.304H39.878V0.912001H36.686ZM38.99 6.288V8.904H42.83V6.288H38.99ZM25.046 15.264V17.832H36.686V23.136H39.878V15.264H25.046ZM58.716 0.912001V23.136H61.884V0.912001H58.716ZM61.164 9.576V12.24H65.1V9.576H61.164ZM44.364 4.2V6.744H57.3V4.2H44.364ZM50.868 7.992C47.628 7.992 45.228 10.2 45.228 13.296C45.228 16.392 47.628 18.6 50.868 18.6C54.108 18.6 56.508 16.392 56.508 13.296C56.508 10.2 54.108 7.992 50.868 7.992ZM50.868 10.584C52.38 10.584 53.46 11.592 53.46 13.296C53.46 15 52.38 16.008 50.868 16.008C49.356 16.008 48.276 15 48.276 13.296C48.276 11.592 49.356 10.584 50.868 10.584ZM49.26 1.272V5.16H52.452V1.272H49.26ZM81.85 0.912001V23.136H85.066V0.912001H81.85ZM75.298 3.216V3.792C75.298 9.744 72.994 13.776 66.61 16.848L68.266 19.392C76.162 15.576 78.466 10.008 78.466 3.216H75.298ZM67.786 3.216V5.736H76.81V3.216H67.786Z" fill="black" data-name="시작하기" class="_235" transform="translate(94.04 18.89)"/>
</g>
<defs><clipPath id="clip_0_152"><rect width="298" height="60"/></clipPath>
</defs>
</svg>